<?xml version="1.0" encoding="UTF-8"?><svg id="Laag_1" xmlns="http://www.w3.org/2000/svg" xmlns:xlink="http://www.w3.org/1999/xlink" viewBox="0 0 1650.51 1650.51"><defs><style>.cls-1{fill:#fff;}.cls-2{fill:#d7dadb;}.cls-3{fill:url(#Naamloos_verloop_13);}.cls-3,.cls-4{opacity:.87;}.cls-5{fill:url(#Naamloos_verloop_85);}.cls-5,.cls-6,.cls-7,.cls-8,.cls-9,.cls-10,.cls-11,.cls-12{opacity:.8;}.cls-6{fill:url(#Naamloos_verloop_57-3);}.cls-7{fill:url(#Naamloos_verloop_72);}.cls-13{fill:url(#Naamloos_verloop_17);}.cls-8{fill:url(#Naamloos_verloop_71);}.cls-14{fill:url(#Naamloos_verloop_37);opacity:.3;}.cls-10{fill:url(#Naamloos_verloop_57);}.cls-15{fill:url(#Naamloos_verloop_95);}.cls-11{fill:url(#Naamloos_verloop_57-2);}.cls-12{fill:url(#Naamloos_verloop_85-2);}.cls-16{fill:#9c9d9f;}.cls-17{fill:#231f20;}.cls-4{fill:url(#Naamloos_verloop_13-2);}</style><linearGradient id="Naamloos_verloop_37" x1="825.15" y1="1642.93" x2="825.15" y2="3.08" gradientTransform="matrix(1, 0, 0, 1, 0, 0)" gradientUnits="userSpaceOnUse"><stop offset="0" stop-color="#e6e7e8"/><stop offset=".11" stop-color="#e3e3e1"/><stop offset=".27" stop-color="#dbd9d0"/><stop offset=".44" stop-color="#cec9b4"/><stop offset=".64" stop-color="#bcb38c"/><stop offset=".84" stop-color="#a5965a"/><stop offset="1" stop-color="#927e2f"/></linearGradient><linearGradient id="Naamloos_verloop_71" x1="624.3" y1="1362.07" x2="624.3" y2="2135.61" gradientTransform="matrix(1, 0, 0, 1, 0, 0)" gradientUnits="userSpaceOnUse"><stop offset="0" stop-color="#6d6e71"/><stop offset=".01" stop-color="#525455"/><stop offset=".03" stop-color="#393b3b"/><stop offset=".04" stop-color="#242625"/><stop offset=".06" stop-color="#131614"/><stop offset=".08" stop-color="#080b08"/><stop offset=".12" stop-color="#010401"/><stop offset=".21" stop-color="#000300"/></linearGradient><linearGradient id="Naamloos_verloop_72" x1="1027.08" y1="1364.28" x2="1027.08" y2="2137.82" gradientTransform="matrix(1, 0, 0, 1, 0, 0)" gradientUnits="userSpaceOnUse"><stop offset="0" stop-color="#6d6e71"/><stop offset=".01" stop-color="#525455"/><stop offset=".03" stop-color="#393b3b"/><stop offset=".04" stop-color="#242625"/><stop offset=".06" stop-color="#131614"/><stop offset=".08" stop-color="#080b08"/><stop offset=".12" stop-color="#010401"/><stop offset=".21" stop-color="#000300"/></linearGradient><linearGradient id="Naamloos_verloop_57" x1="388.31" y1="878.34" x2="388.31" y2="1541.4" gradientTransform="matrix(1, 0, 0, 1, 0, 0)" gradientUnits="userSpaceOnUse"><stop offset="0" stop-color="#fff"/><stop offset="1" stop-color="#000300"/></linearGradient><linearGradient id="Naamloos_verloop_57-2" x1="824.57" y1="876.15" x2="824.57" y2="1637.97" xlink:href="#Naamloos_verloop_57"/><linearGradient id="Naamloos_verloop_57-3" x1="1263.09" y1="878.8" x2="1263.09" y2="1542.42" xlink:href="#Naamloos_verloop_57"/><linearGradient id="Naamloos_verloop_13" x1="1473.5" y1="503.42" x2="1473.5" y2="1276.96" gradientTransform="matrix(1, 0, 0, 1, 0, 0)" gradientUnits="userSpaceOnUse"><stop offset="0" stop-color="#545541"/><stop offset=".03" stop-color="#656654"/><stop offset=".11" stop-color="#949488"/><stop offset=".19" stop-color="#babab2"/><stop offset=".26" stop-color="#d8d8d4"/><stop offset=".34" stop-color="#ededeb"/><stop offset=".4" stop-color="#fafafa"/><stop offset=".46" stop-color="#fff"/><stop offset=".51" stop-color="#f6f6f5"/><stop offset=".6" stop-color="#dedfdb"/><stop offset=".71" stop-color="#b8b9b1"/><stop offset=".84" stop-color="#848577"/><stop offset=".97" stop-color="#464833"/></linearGradient><linearGradient id="Naamloos_verloop_13-2" x1="180.88" y1="501.75" x2="180.88" y2="1275.29" xlink:href="#Naamloos_verloop_13"/><linearGradient id="Naamloos_verloop_95" x1="825.25" y1="0" x2="825.25" y2="1650.51" gradientTransform="matrix(1, 0, 0, 1, 0, 0)" gradientUnits="userSpaceOnUse"><stop offset="0" stop-color="#545541"/><stop offset=".03" stop-color="#656654"/><stop offset=".13" stop-color="#949488"/><stop offset=".22" stop-color="#babab2"/><stop offset=".3" stop-color="#d8d8d4"/><stop offset=".39" stop-color="#ededeb"/><stop offset=".47" stop-color="#fafafa"/><stop offset=".53" stop-color="#fff"/><stop offset=".58" stop-color="#f6f6f5"/><stop offset=".66" stop-color="#dedfdb"/><stop offset=".76" stop-color="#b8b9b1"/><stop offset=".88" stop-color="#848577"/><stop offset="1" stop-color="#464833"/></linearGradient><linearGradient id="Naamloos_verloop_85" x1="1046.22" y1="506.14" x2="1046.22" y2="1279.68" gradientTransform="matrix(1, 0, 0, 1, 0, 0)" gradientUnits="userSpaceOnUse"><stop offset="0" stop-color="#545541"/><stop offset=".03" stop-color="#656654"/><stop offset=".11" stop-color="#949488"/><stop offset=".19" stop-color="#babab2"/><stop offset=".26" stop-color="#d8d8d4"/><stop offset=".34" stop-color="#ededeb"/><stop offset=".4" stop-color="#fafafa"/><stop offset=".46" stop-color="#fff"/><stop offset=".51" stop-color="#f6f6f5"/><stop offset=".6" stop-color="#dedfdb"/><stop offset=".72" stop-color="#b8b9b1"/><stop offset=".86" stop-color="#848577"/><stop offset="1" stop-color="#464833"/></linearGradient><linearGradient id="Naamloos_verloop_85-2" x1="608.25" y1="503.94" x2="608.25" y2="1277.48" xlink:href="#Naamloos_verloop_85"/><radialGradient id="Naamloos_verloop_17" cx="759.57" cy="780.19" fx="759.57" fy="780.19" r="494.16" gradientTransform="translate(51.84 292.8) rotate(4.93) scale(1.08 .78)" gradientUnits="userSpaceOnUse"><stop offset="0" stop-color="#ccb963"/><stop offset="1" stop-color="#b9a24d"/></radialGradient></defs><circle class="cls-2" cx="825.25" cy="825.25" r="819.93"/><path class="cls-14" d="M1121.5,1419.25c-54.97-98.95-13.49-185.66-13.49-185.66l155.66-354.81s106.3,237.03,152.47,344.77c30,70,16.38,130.71,3.15,164.66,116.5-122.39,195.55-280.74,218.81-456.69-.11,.25-.2,.5-.31,.75-46.18,107.74-152.47,344.77-152.47,344.77l-155.66-354.81s-41.48-86.72,13.49-185.66c54.97-98.95,138.53-233.07,138.53-233.07l145.12,235.27s9.08,13.63,17.07,36.82c-1.81-31.74-5.42-62.99-10.74-93.66-23.68-39.56-49.78-84.02-71.45-123.02-31.65-56.96-31.32-109.87-25.35-144.51-10.72-18.61-22.15-36.75-34.25-54.4-10.94,24.48-17.78,39.71-17.78,39.71l-59.87-136.47c-26.7-28.57-55.42-55.22-85.93-79.74,28.9,65.11,59.94,135.5,79.83,181.91,46.18,107.74-10.99,193.5-10.99,193.5l-145.12,235.27s-83.55-134.13-138.53-233.07-13.49-185.66-13.49-185.66l117.21-267.16c-13.76-7.76-27.76-15.12-41.99-22.09-50.39,116.06-140.12,316.16-140.12,316.16L889.64,47.55s-7.8-16.31-12.15-42.84c-17.26-1.08-34.65-1.64-52.18-1.64s-33.78,.53-50.48,1.54c-2.73,16.15-7.5,33.17-15.04,50.77-46.18,107.74-152.47,344.77-152.47,344.77L468.8,84.44c-14.09,6.81-27.94,14.02-41.57,21.6,35.15,78.81,85.87,193.05,114.11,258.95,46.18,107.74-10.99,193.5-10.99,193.5l-145.12,235.27s-83.55-134.13-138.53-233.07-13.49-185.66-13.49-185.66l86.74-197.73c-32.6,25.55-63.21,53.52-91.57,83.63-33.35,75.02-61.17,137.05-61.17,137.05l-17.44-39.76c-12.17,17.65-23.66,35.81-34.45,54.43,16.65,85.43-25.07,148.04-25.07,148.04l-71.97,116.68c-6.1,34.02-10.1,68.76-11.86,104.09,4.43-15.01,10.77-30.66,19.64-46.62,54.97-98.95,138.53-233.07,138.53-233.07l145.12,235.27s57.17,85.75,10.99,193.5c-46.18,107.74-152.47,344.77-152.47,344.77L12.58,920.48s-.79-1.65-2-4.74c20.42,181.35,99.99,344.79,218.97,470.58-31.28-84.69,1.47-153.17,1.47-153.17l155.66-354.81s106.3,237.03,152.47,344.77c46.18,107.74-10.99,193.5-10.99,193.5l-82.29,133.41c11.2,5.86,22.55,11.47,34.05,16.82,53.81-94.37,122.57-204.75,122.57-204.75l145.12,235.27s10.83,16.26,19.26,43.5c16.51,1.16,33.15,1.84,49.92,2.01-17.62-28.46-86.68-140.55-134.3-226.26-54.97-98.95-13.49-185.66-13.49-185.66l155.66-354.81s106.3,237.03,152.47,344.77c46.18,107.74-10.99,193.5-10.99,193.5l-140.95,228.51s.08,0,.12,0c19.48,0,38.79-.7,57.93-2.03,4.37-14.07,10.44-28.67,18.71-43.54,54.97-98.95,138.53-233.07,138.53-233.07l126.11,204.45c11.04-5.06,21.95-10.35,32.71-15.87-25.28-42.08-54.18-91.09-77.8-133.61Zm-360.69-486.54c-46.18,107.74-152.47,344.77-152.47,344.77l-155.66-354.81s-41.48-86.72,13.49-185.66c54.97-98.95,138.53-233.07,138.53-233.07l145.12,235.27s57.17,85.75,10.99,193.5Zm62.41-141.16s-83.55-134.13-138.53-233.07c-54.97-98.95-13.49-185.66-13.49-185.66L826.86,18.01s106.3,237.03,152.47,344.77c46.18,107.74-10.99,193.5-10.99,193.5l-145.12,235.27Zm67.45,133.33s-41.48-86.72,13.49-185.66,138.53-233.07,138.53-233.07l145.12,235.27s57.17,85.75,10.99,193.5c-46.18,107.74-152.47,344.77-152.47,344.77l-155.66-354.81Z"/><g class="cls-9"><path class="cls-8" d="M747.59,1597.35l-145.12-235.27s-58.66,90.22-113.63,189.17c-5.82,10.48,3.82-10.11,0,0l272.86,74.83c-7.12-18.24-14.1-28.73-14.1-28.73Z"/></g><g class="cls-9"><path class="cls-7" d="M1166.58,1568.73l-126.12-204.45s-83.55,134.13-138.53,233.07c-5.82,10.48-10.55,20.81-14.37,30.93l279.01-59.55c-7.12-18.24,0,0,0,0Z"/></g><path class="cls-10" d="M386.67,878.34l-155.66,354.81s-35.95,55.52,19.02,154.47c54.97,98.95,201.15,153.78,201.15,153.78l76.97-124.78s57.17-85.75,10.99-193.5c-46.18-107.74-152.47-344.77-152.47-344.77Z"/><path class="cls-11" d="M824.66,876.15l-155.66,354.81s-41.48,86.71,13.49,185.66c54.97,98.95,142.08,221.36,142.08,221.36l141.57-223.56s57.17-85.75,10.99-193.5c-46.18-107.74-152.47-344.77-152.47-344.77Z"/><path class="cls-6" d="M1263.67,878.8l-155.66,354.81s-41.48,86.71,13.49,185.66c54.97,98.95,70.98,123.16,70.98,123.16l207.52-143.31s62.32-67.8,16.15-175.54c-46.18-107.74-152.47-344.77-152.47-344.77Z"/><path class="cls-3" d="M1485.34,1276.96l-155.66-354.81s-41.48-86.71,13.49-185.66c54.97-98.95,138.53-233.07,138.53-233.07l145.12,235.27s22.57,141.53-23.61,249.28c-46.18,107.74-117.87,288.99-117.87,288.99Z"/><path class="cls-4" d="M168.23,1275.29L33.36,942.98s-17.08-187.95-7.3-208.16c49.34-101.87,138.53-233.07,138.53-233.07l145.12,235.27s57.17,85.75,10.99,193.5c-46.18,107.74-152.47,344.77-152.47,344.77Z"/><path class="cls-15" d="M825.25,1650.51c-111.4,0-219.48-21.82-321.23-64.86-98.27-41.57-186.53-101.07-262.31-176.85-75.78-75.78-135.28-164.04-176.85-262.31C21.82,1044.73,0,936.65,0,825.25s21.82-219.48,64.86-321.23c41.57-98.27,101.07-186.53,176.85-262.31,75.78-75.78,164.03-135.28,262.31-176.85C605.78,21.82,713.86,0,825.25,0s219.48,21.82,321.23,64.86c98.27,41.57,186.53,101.07,262.31,176.85,75.78,75.78,135.28,164.03,176.85,262.31,43.04,101.76,64.86,209.84,64.86,321.23s-21.82,219.48-64.86,321.23c-41.57,98.27-101.07,186.53-176.85,262.31-75.78,75.78-164.03,135.28-262.31,176.85-101.76,43.04-209.84,64.86-321.23,64.86Zm0-1599.94c-206.93,0-401.46,80.58-547.78,226.9C131.15,423.79,50.57,618.33,50.57,825.25s80.58,401.47,226.9,547.78c146.32,146.32,340.86,226.9,547.78,226.9s401.46-80.58,547.78-226.9c146.32-146.32,226.9-340.86,226.9-547.78s-80.58-401.46-226.9-547.78c-146.32-146.32-340.86-226.9-547.78-226.9Z"/><path class="cls-5" d="M1046.31,1279.68l-155.66-354.81s-41.48-86.71,13.49-185.66c54.97-98.95,138.53-233.07,138.53-233.07l145.12,235.27s57.17,85.75,10.99,193.5c-46.18,107.74-152.47,344.77-152.47,344.77Z"/><path class="cls-12" d="M608.34,1277.48l-155.66-354.81s-41.48-86.71,13.49-185.66c54.97-98.95,138.53-233.07,138.53-233.07l145.12,235.27s57.17,85.75,10.99,193.5c-46.18,107.74-152.47,344.77-152.47,344.77Z"/><g><path class="cls-17" d="M257.74,871.3l-5.24,18.89h-17.25l22.5-73.61h21.84l22.82,73.61h-17.91l-5.68-18.89h-21.08Zm18.68-12.45l-4.59-15.62c-1.31-4.37-2.62-9.83-3.71-14.2h-.22c-1.09,4.37-2.18,9.94-3.39,14.2l-4.37,15.62h16.27Z"/><path class="cls-17" d="M312.23,816.58h16.71v59.63h29.27v13.98h-45.98v-73.61Z"/><path class="cls-17" d="M385.83,871.3l-5.24,18.89h-17.25l22.5-73.61h21.84l22.82,73.61h-17.91l-5.68-18.89h-21.08Zm18.68-12.45l-4.59-15.62c-1.31-4.37-2.62-9.83-3.71-14.2h-.22c-1.09,4.37-2.18,9.94-3.39,14.2l-4.37,15.62h16.27Z"/><path class="cls-17" d="M440.32,817.57c4.37-.87,13.22-1.53,21.52-1.53,10.16,0,16.38,.98,21.73,4.15,5.13,2.73,8.85,7.75,8.85,14.42s-3.82,12.67-12.12,15.73v.22c8.41,2.29,14.63,8.63,14.63,18.13,0,6.66-3.06,11.9-7.64,15.62-5.35,4.26-14.31,6.66-28.94,6.66-8.19,0-14.31-.55-18.02-1.09v-72.3Zm16.49,28.18h5.46c8.74,0,13.43-3.6,13.43-9.06s-4.26-8.52-11.79-8.52c-3.6,0-5.68,.22-7.1,.44v17.15Zm0,32.66c1.64,.22,3.6,.22,6.44,.22,7.54,0,14.2-2.84,14.2-10.59s-6.66-10.37-14.96-10.37h-5.68v20.75Z"/><path class="cls-17" d="M506.28,817.57c5.35-.87,13.32-1.53,22.17-1.53,10.92,0,18.57,1.64,23.81,5.79,4.37,3.49,6.77,8.63,6.77,15.4,0,9.39-6.66,15.83-13,18.13v.33c5.13,2.07,7.97,6.99,9.83,13.76,2.29,8.3,4.59,17.91,6.01,20.75h-17.04c-1.2-2.07-2.95-8.08-5.13-17.15-1.97-9.17-5.13-11.69-11.9-11.79h-5.02v28.94h-16.49v-72.63Zm16.49,31.67h6.55c8.3,0,13.22-4.15,13.22-10.59,0-6.77-4.59-10.16-12.23-10.27-4.04,0-6.33,.33-7.54,.55v20.31Z"/><path class="cls-17" d="M589.16,871.3l-5.24,18.89h-17.25l22.5-73.61h21.84l22.82,73.61h-17.91l-5.68-18.89h-21.08Zm18.68-12.45l-4.59-15.62c-1.31-4.37-2.62-9.83-3.71-14.2h-.22c-1.09,4.37-2.18,9.94-3.39,14.2l-4.37,15.62h16.27Z"/><path class="cls-17" d="M660.8,871.3l-5.24,18.89h-17.25l22.5-73.61h21.84l22.83,73.61h-17.91l-5.68-18.89h-21.08Zm18.68-12.45l-4.59-15.62c-1.31-4.37-2.62-9.83-3.71-14.2h-.22c-1.09,4.37-2.18,9.94-3.39,14.2l-4.37,15.62h16.27Z"/><path class="cls-17" d="M715.28,817.57c5.35-.87,13.32-1.53,22.17-1.53,10.92,0,18.57,1.64,23.81,5.79,4.37,3.49,6.77,8.63,6.77,15.4,0,9.39-6.66,15.83-13,18.13v.33c5.13,2.07,7.97,6.99,9.83,13.76,2.29,8.3,4.59,17.91,6.01,20.75h-17.04c-1.2-2.07-2.95-8.08-5.13-17.15-1.97-9.17-5.13-11.69-11.9-11.79h-5.02v28.94h-16.49v-72.63Zm16.49,31.67h6.55c8.3,0,13.22-4.15,13.22-10.59,0-6.77-4.59-10.16-12.23-10.27-4.04,0-6.33,.33-7.54,.55v20.31Z"/><path class="cls-17" d="M803.19,816.58h39.65v7.97h-30.14v24.46h27.85v7.86h-27.85v33.31h-9.5v-73.61Z"/><path class="cls-17" d="M919.28,852.62c0,25.34-15.4,38.77-34.18,38.77s-33.09-15.07-33.09-37.35c0-23.37,14.52-38.66,34.18-38.66s33.09,15.4,33.09,37.24Zm-57.12,1.2c0,15.73,8.52,29.82,23.48,29.82s23.59-13.87,23.59-30.58c0-14.63-7.64-29.92-23.48-29.92s-23.59,14.52-23.59,30.69Z"/><path class="cls-17" d="M941.11,816.58v43.58c0,16.49,7.32,23.48,17.15,23.48,10.92,0,17.91-7.21,17.91-23.48v-43.58h9.61v42.92c0,22.61-11.9,31.89-27.85,31.89-15.07,0-26.43-8.63-26.43-31.45v-43.36h9.61Z"/><path class="cls-17" d="M1002.26,890.19v-73.61h10.38l23.59,37.24c5.46,8.63,9.72,16.38,13.21,23.92l.22-.11c-.87-9.83-1.09-18.78-1.09-30.25v-30.8h8.95v73.61h-9.61l-23.37-37.35c-5.13-8.19-10.05-16.6-13.76-24.57l-.33,.11c.55,9.28,.76,18.13,.76,30.36v31.45h-8.96Z"/><path class="cls-17" d="M1074.12,817.57c5.79-.87,12.67-1.53,20.2-1.53,13.65,0,23.37,3.17,29.82,9.17,6.55,6.01,10.37,14.52,10.37,26.43s-3.71,21.84-10.59,28.61c-6.88,6.88-18.24,10.59-32.55,10.59-6.77,0-12.45-.33-17.26-.87v-72.41Zm9.5,65.09c2.4,.44,5.9,.55,9.61,.55,20.31,0,31.34-11.36,31.34-31.24,.11-17.36-9.72-28.39-29.82-28.39-4.91,0-8.63,.44-11.14,.98v58.1Z"/><path class="cls-17" d="M1157.22,867.04l-7.64,23.15h-9.83l25.01-73.61h11.47l25.12,73.61h-10.16l-7.86-23.15h-26.1Zm24.14-7.43l-7.21-21.19c-1.64-4.81-2.73-9.17-3.82-13.43h-.22c-1.09,4.37-2.29,8.85-3.71,13.32l-7.21,21.3h22.17Z"/><path class="cls-17" d="M1217.72,824.66h-22.39v-8.08h54.5v8.08h-22.5v65.53h-9.61v-65.53Z"/><path class="cls-17" d="M1267.52,816.58v73.61h-9.5v-73.61h9.5Z"/><path class="cls-17" d="M1347.02,852.62c0,25.34-15.4,38.77-34.18,38.77s-33.09-15.07-33.09-37.35c0-23.37,14.52-38.66,34.18-38.66s33.09,15.4,33.09,37.24Zm-57.12,1.2c0,15.73,8.52,29.82,23.48,29.82s23.59-13.87,23.59-30.58c0-14.63-7.64-29.92-23.48-29.92s-23.59,14.52-23.59,30.69Z"/><path class="cls-17" d="M1359.35,890.19v-73.61h10.38l23.59,37.24c5.46,8.63,9.72,16.38,13.21,23.92l.22-.11c-.87-9.83-1.09-18.78-1.09-30.25v-30.8h8.95v73.61h-9.61l-23.37-37.35c-5.13-8.19-10.05-16.6-13.76-24.57l-.33,.11c.55,9.28,.76,18.13,.76,30.36v31.45h-8.96Z"/></g><path class="cls-16" d="M985.78,764.74h-134.13V409.36c0-.28-.4-45.46-13.92-87.97-17.86-56.14-40.38-56.14-48.85-56.14s-31.26,0-49.55,56.48c-13.38,41.3-14.39,85.1-14.44,88.04v210.77h-134.13v-211.56c.04-6.43,.91-64.6,19.9-125.25,12.61-40.25,30.71-73.28,53.81-98.17,33.05-35.62,76.07-54.44,124.41-54.44s91.42,18.88,124.36,54.59c23.01,24.95,40.96,58.04,53.35,98.35,18.65,60.67,19.19,118.86,19.19,125.29v355.38Z"/><rect class="cls-16" x="610.86" y="342.3" width="463.48" height="134.13"/><rect class="cls-16" x="918.72" y="500.68" width="134.03" height="134.13"/><path d="M972.23,753.75h-134.13V398.05c0-.28-.4-45.46-13.92-87.97-17.86-56.14-40.38-56.14-48.85-56.14s-31.26,0-49.55,56.48c-13.38,41.3-14.39,85.1-14.44,88.04v210.77h-134.13v-211.56c.04-6.43,.91-64.6,19.9-125.25,12.61-40.25,30.71-73.28,53.81-98.17,33.05-35.62,76.07-54.44,124.41-54.44s91.42,18.88,124.36,54.59c23.01,24.95,40.96,58.04,53.35,98.35,18.65,60.67,19.19,118.86,19.19,125.29v355.7Z"/><rect x="629.07" y="330.99" width="431.72" height="134.13"/><rect x="905.16" y="489.37" width="135.76" height="134.13"/><path class="cls-1" d="M922.73,721.35h-35.18l.03-323.29c0-.49-.25-51.38-15.65-101.06-19.04-61.39-51.54-92.52-96.6-92.52s-77.82,31.16-97.23,92.61c-15.69,49.69-16.23,100.58-16.24,101.09v180.35h-35.18v-180.46c.01-2.37,.52-56.16,17.64-110.85,30.52-97.46,88.09-117.92,131-117.92s100.44,20.47,130.42,118.01c16.81,54.69,17.01,108.49,17.01,110.76l-.03,323.29Z"/><rect class="cls-1" x="638.26" y="380.46" width="393.06" height="35.18"/><rect class="cls-1" x="905.16" y="538.85" width="105.57" height="35.18"/><path d="M906.24,721.34h-2.2l.03-323.29c0-.53-.19-53.27-16.19-105.31-14.7-47.8-46.16-104.77-112.54-104.77-36.65,0-86.04,18.19-113.17,104.82-16.3,52.03-16.79,104.74-16.79,105.27v180.46h-2.2v-180.46c0-.54,.49-53.57,16.89-105.92,21.79-69.58,61.65-106.36,115.27-106.36s93.27,36.78,114.66,106.36c16.09,52.35,16.28,105.38,16.28,105.91l-.03,323.29Z"/><rect x="644.27" y="396.96" width="387.05" height="2.2"/><rect x="905.16" y="555.34" width="105.57" height="2.2"/><path class="cls-13" d="M912.07,943.79c-432.39,39.21-665.66,27.4-766.61-119.77l-72.47,100.26c242.71,166.38,647.85,80.38,1008.72,36.74,243.67-29.47,479.32,64.04,479.32,64.04l-2.74-39.63c-57.06-17.67-277.58-75.06-646.22-41.63Z"/><g><path class="cls-17" d="M460.33,1275.69h-25.64v-104.71h25.64v104.71Z"/><path class="cls-17" d="M541.66,1270.01c0,1.78-.19,3.1-.58,3.94-.62,1.16-2.32,1.74-5.11,1.74h-20.07c-1.16,14-5.96,24.79-14.39,32.37-7.74,6.96-17.6,10.44-29.59,10.44-7.58,0-15.35-1.47-23.32-4.41-3.87-1.39-5.8-2.86-5.8-4.41,0-1.86,2.48-2.67,7.43-2.44,13.77,.7,24.4-2.55,31.91-9.75,6.34-6.11,9.51-13.77,9.51-22.97,0-4.64-.85-8.89-2.55-12.76-1.39-3.25-3.54-5.4-6.44-6.44-2.9-1.04-4.47-2.07-4.7-3.07-.16-.77,1.74-2.9,5.69-6.38,5.49-4.87,9.38-8.55,11.66-11.02,2.28-2.47,4.78-6.07,7.48-10.79,2.17-3.71,3.48-5.57,3.94-5.57,1.55,0,2.9,2.9,4.06,8.7l5.11,23.9h20.07c2.86,0,4.6,.66,5.22,1.97,.31,.78,.46,2.01,.46,3.71v13.23Z"/><path class="cls-17" d="M609.66,1281.38c0,8.43-2.67,14.89-8.01,19.38-3.94,2.32-7.85,4.64-11.72,6.96-1.86,1.39-3.71,3.32-5.57,5.8-1.24,1.7-2.4,2.55-3.48,2.55s-2.24-.85-3.48-2.55c-1.78-2.48-3.6-4.41-5.45-5.8-3.94-2.32-7.85-4.64-11.72-6.96-5.34-4.49-8.01-10.95-8.01-19.38v-5.69h-16.24c-2.86,0-4.6-.65-5.22-1.97-.31-.77-.46-2.01-.46-3.71v-13.23c0-1.78,.19-3.05,.58-3.83,.62-1.24,2.32-1.86,5.11-1.86h35.16c2.78,0,4.52,.66,5.22,1.97,.31,.78,.46,2.01,.46,3.71v23.67c0,2.71,1.35,4.06,4.06,4.06s4.18-1.36,4.18-4.06v-36.08c0-7.04-1.2-12.1-3.6-15.2-1.39-1.86-3.56-3.17-6.5-3.94-2.32-.7-3.48-1.62-3.48-2.78,0-.77,2.32-2.9,6.96-6.38,6.57-4.87,11.18-8.51,13.81-10.91,2.94-2.63,6.27-6.3,9.98-11.02,2.94-3.63,4.68-5.45,5.22-5.45,1.47,0,2.2,2.9,2.2,8.7v84Zm-16.48,64.97c0,3.4-1.2,6.3-3.6,8.7-2.4,2.39-5.3,3.59-8.7,3.59s-6.3-1.2-8.7-3.59c-2.4-2.4-3.6-5.3-3.6-8.7s1.2-6.31,3.6-8.7c2.4-2.4,5.3-3.6,8.7-3.6s6.3,1.2,8.7,3.6c2.4,2.39,3.6,5.3,3.6,8.7Z"/><path class="cls-17" d="M766.64,1275.69h-25.64v-104.71h25.64v104.71Z"/><path class="cls-17" d="M828.83,1136.91c0,3.4-1.2,6.3-3.6,8.7-2.4,2.4-5.3,3.6-8.7,3.6s-6.3-1.2-8.7-3.6c-2.4-2.4-3.6-5.3-3.6-8.7s1.2-6.3,3.6-8.7,5.3-3.6,8.7-3.6,6.3,1.2,8.7,3.6c2.4,2.4,3.6,5.3,3.6,8.7Zm57.08,133.1c0,1.7-.54,2.78-1.62,3.25-2.01,.93-3.36,1.74-4.06,2.44h-69.38c-3.79,0-5.69-2.16-5.69-6.5v-13.23c0-10.91,3.44-19.96,10.33-27.15,4.41-4.49,12.38-8.78,23.9-12.88v-6.27c0-7.11-1.2-12.22-3.6-15.32-1.39-1.78-3.56-3.09-6.5-3.94-2.32-.62-3.48-1.55-3.48-2.78,0-.77,2.32-2.9,6.96-6.38,6.57-4.87,11.18-8.51,13.81-10.91,2.94-2.55,6.27-6.19,9.98-10.91,2.94-3.71,4.64-5.57,5.11-5.57,1.55,0,2.32,2.9,2.32,8.7v88.53h16.24c.7,.78,2.05,1.59,4.06,2.44,1.08,.46,1.62,1.55,1.62,3.25v13.23Zm-46.53-18.91v-11.83c-3.1,.62-5.71,2.05-7.83,4.29-2.13,2.24-3.19,4.76-3.19,7.54h11.02Zm22.16-114.18c0,3.4-1.2,6.3-3.6,8.7s-5.3,3.6-8.7,3.6-6.3-1.2-8.7-3.6c-2.4-2.4-3.6-5.3-3.6-8.7s1.2-6.3,3.6-8.7c2.4-2.4,5.3-3.6,8.7-3.6s6.3,1.2,8.7,3.6c2.4,2.4,3.6,5.3,3.6,8.7Z"/><path class="cls-17" d="M1033.5,1270.01c0,1.78-.23,3.1-.7,3.94-.62,1.16-2.32,1.74-5.11,1.74h-147.47c-2.86,0-4.6-.7-5.22-2.09-.31-.77-.46-1.97-.46-3.6v-13.23c0-1.78,.19-3.05,.58-3.83,.62-1.24,2.32-1.86,5.11-1.86h29.59c-.54-5.26-1.97-9.01-4.29-11.25-1.24-1.24-3.25-2.24-6.03-3.02-2.01-.54-3.02-1.39-3.02-2.55,0-.85,2.32-2.98,6.96-6.38,6.57-4.87,11.25-8.56,14.04-11.08,2.78-2.51,6.07-6.13,9.86-10.85,2.86-3.63,4.56-5.45,5.11-5.45,1.47,0,2.2,2.9,2.2,8.7v41.89h14.04v-11.49c0-7.04-1.16-12.1-3.48-15.2-1.39-1.86-3.6-3.17-6.61-3.94-2.32-.7-3.48-1.62-3.48-2.78,0-.77,2.32-2.9,6.96-6.38,6.57-4.87,11.25-8.56,14.04-11.08,2.78-2.51,6.07-6.13,9.86-10.85,2.86-3.63,4.56-5.45,5.11-5.45,1.47,0,2.2,2.9,2.2,8.7v58.48h13.69v-11.49c0-7.04-1.2-12.1-3.6-15.2-1.39-1.86-3.56-3.17-6.5-3.94-2.32-.7-3.48-1.62-3.48-2.78,0-.77,2.32-2.9,6.96-6.38,6.57-4.87,11.18-8.51,13.81-10.91,2.94-2.63,6.27-6.3,9.98-11.02,2.94-3.63,4.64-5.45,5.11-5.45,1.47,0,2.2,2.9,2.2,8.7v58.48h16.24c2.86,0,4.6,.66,5.22,1.97,.39,.78,.58,2.01,.58,3.71v13.23Z"/><path class="cls-17" d="M1158.92,1270.01c0,1.78-.19,3.06-.58,3.83-.62,1.24-2.32,1.86-5.11,1.86h-125.54c-2.86,0-4.6-.7-5.22-2.09-.31-.7-.46-1.89-.46-3.6v-13.23c0-1.78,.19-3.05,.58-3.83,.62-1.24,2.32-1.86,5.11-1.86h29.59c-.54-5.26-1.97-9.01-4.29-11.25-1.24-1.24-3.25-2.24-6.03-3.02-2.01-.54-3.02-1.39-3.02-2.55,0-.85,2.32-2.98,6.96-6.38,6.57-4.87,11.25-8.56,14.04-11.08,2.78-2.51,6.07-6.13,9.86-10.85,2.86-3.63,4.56-5.45,5.11-5.45,1.47,0,2.2,2.9,2.2,8.7v41.89h14.04v-11.49c0-7.04-1.16-12.1-3.48-15.2-1.39-1.86-3.6-3.17-6.61-3.94-2.32-.7-3.48-1.62-3.48-2.78,0-.77,2.32-2.9,6.96-6.38,6.57-4.87,11.25-8.56,14.04-11.08,2.78-2.51,6.07-6.13,9.86-10.85,2.86-3.63,4.56-5.45,5.11-5.45,1.47,0,2.2,2.9,2.2,8.7v58.48h13.69v-11.49c0-7.04-1.2-12.1-3.6-15.2-1.39-1.86-3.56-3.17-6.5-3.94-2.32-.7-3.48-1.62-3.48-2.78,0-.77,2.32-2.9,6.96-6.38,6.57-4.87,11.18-8.51,13.81-10.91,2.94-2.63,6.27-6.3,9.98-11.02,2.94-3.63,4.64-5.45,5.11-5.45,1.47,0,2.2,2.9,2.2,8.7v77.39Z"/><path class="cls-17" d="M1265.2,1270.01c0,1.78-.23,3.1-.7,3.94-.62,1.16-2.28,1.74-4.99,1.74h-16.24c0,10.21-3.44,18.74-10.33,25.58-6.88,6.85-15.78,10.27-26.69,10.27-2.55,0-5.61-.39-9.17-1.16-4.8-1.01-7.19-2.28-7.19-3.83,0-.46,2.47-1.39,7.43-2.78,5.95-1.55,10.56-3.94,13.81-7.19,5.03-4.87,7.54-11.83,7.54-20.88h-28.54c-3.79,0-5.69-2.16-5.69-6.5v-13.23c0-10.91,3.44-19.96,10.33-27.15,3.94-4.02,8.74-7.19,14.39-9.51,4.87-1.78,9.75-3.56,14.62-5.34,3.48-1.55,7.15-4.02,11.02-7.43,3.25-2.94,5.18-4.41,5.8-4.41,1.78,0,2.67,2.4,2.67,7.19v41.77h16.24c2.78,0,4.49,.66,5.11,1.97,.39,.78,.58,2.01,.58,3.71v13.23Zm-26.57-89.34c0,1.01-1.55,1.51-4.64,1.51h-35.5c-1.39,0-2.28-.35-2.67-1.04-.16-.39-.23-1-.23-1.86v-6.61c0-.93,.13-1.64,.41-2.15,.27-.5,1.1-.75,2.49-.75h4.87c-1.94-2.24-2.9-5.03-2.9-8.35,0-4.1,2.09-7.85,6.27-11.25,4.18-3.4,8.51-5.11,12.99-5.11,2.24,0,4.49,1.16,6.73,3.48,1.93,2.09,2.9,3.94,2.9,5.57,0,.31-.08,.54-.23,.7-.23,.39-1.04,.35-2.44-.12-2.09-.62-4.14-.93-6.15-.93-2.24,0-4.12,.83-5.63,2.49-1.51,1.66-2.26,3.5-2.26,5.51,0,5.34,2.75,8.01,8.24,8.01,1.93,0,3.65-.62,5.16-1.86,1.51-1.24,2.34-1.86,2.49-1.86,.62,0,1.24,.78,1.86,2.32,1,2.4,1.93,4.22,2.78,5.45,3.63,4.95,5.45,7.23,5.45,6.85Zm-19.96,70.43v-11.83c-3.1,.62-5.71,2.05-7.83,4.29-2.13,2.24-3.19,4.76-3.19,7.54h11.02Z"/><path class="cls-17" d="M1334.23,1209.33v66.37h-74.72c-2.86,0-4.6-.65-5.22-1.97-.31-.77-.46-2.01-.46-3.71v-13.23c0-1.78,.19-3.05,.58-3.83,.62-1.24,2.32-1.86,5.11-1.86h16.24c1-8.89,4.37-16.32,10.09-22.28,3.94-4.02,8.7-7.19,14.27-9.51,4.95-1.78,9.86-3.56,14.74-5.34,3.48-1.55,7.15-4.02,11.02-7.43,3.25-2.94,5.18-4.41,5.8-4.41,1.7,0,2.55,2.4,2.55,7.19Zm-24.6,41.77v-11.83c-3.1,.62-5.71,2.05-7.83,4.29-2.13,2.24-3.19,4.76-3.19,7.54h11.02Z"/><path class="cls-17" d="M417,1275.69h0s-25.18,1.74,0,0c0,0-20.07,0,0,0h0c-1.16,14-5.96,24.79-14.39,32.37-7.74,6.96-17.6,10.44-29.59,10.44-7.58,0-15.35-1.47-23.32-4.41-3.87-1.39-5.8-2.86-5.8-4.41,0-1.86,2.48-2.67,7.43-2.44,13.77,.7,24.4-2.55,31.91-9.75,6.34-6.11,9.51-13.77,9.51-22.97,0-4.64-.85-8.89-2.55-12.76-1.39-3.25-3.54-5.4-6.44-6.44-2.9-1.04-4.47-2.07-4.7-3.07-.16-.77,1.74-2.9,5.69-6.38,5.49-4.87,9.38-8.55,11.66-11.02,2.28-2.47,4.78-6.07,7.48-10.79,2.17-3.71,3.48-5.57,3.94-5.57,1.55,0,2.9,2.9,4.06,8.7l5.11,48.5"/><g><path d="M663.96,1108.78c-.54,0-2.24,1.82-5.11,5.45-3.79,4.72-7.08,8.34-9.86,10.85-2.78,2.52-7.47,6.21-14.04,11.08-4.64,3.4-6.96,5.53-6.96,6.38,0,1.16,1.16,2.09,3.48,2.78,3.02,.78,5.22,2.09,6.61,3.95,2.32,3.1,3.48,8.16,3.48,15.2v53.72h24.6v-100.71c0-5.8-.74-8.7-2.2-8.7Z"/><path d="M630.19,1098.1h35.85c2.78,0,4.18-.54,4.18-1.62,0-.38-.66-1.28-1.97-2.67-1.62-1.78-2.71-3.05-3.25-3.83-1.01-1.31-1.97-3.17-2.9-5.57-.7-1.7-1.28-2.55-1.74-2.55-.16,0-1.07,.62-2.73,1.86-1.66,1.24-3.31,1.86-4.93,1.86-5.65,0-8.47-2.59-8.47-7.77,0-2.16,.79-4.06,2.38-5.69,1.58-1.62,3.5-2.44,5.74-2.44,2.01,0,4.02,.31,6.03,.93,1.31,.46,2.09,.5,2.32,.12,.15-.23,.23-.5,.23-.81,0-1.55-1.01-3.4-3.02-5.57-2.01-2.16-4.14-3.25-6.38-3.25-4.56,0-8.93,1.66-13.11,4.99-4.18,3.33-6.27,7.08-6.27,11.25,0,3.4,.97,6.23,2.9,8.47l-4.99-.23c-1.94-.08-2.9,1.01-2.9,3.25v6.85c0,1.62,1,2.44,3.02,2.44Z"/><path d="M641.56,1237.7l34.92,34.92v8.01c0,2.71-1.7,4.06-5.11,4.06s-5.22-1.36-5.22-4.06v-8.01l3.83-3.83-17.4-17.4-11.02,11.14v19.03c0,8.43,2.78,14.89,8.35,19.38,4.02,2.32,8.04,4.64,12.07,6.96,1.7,1.31,3.63,3.25,5.8,5.8,1.47,1.7,2.78,2.55,3.95,2.55,1.08,0,2.24-.85,3.48-2.55,1.78-2.48,3.6-4.41,5.45-5.8,4.02-2.32,8.04-4.64,12.07-6.96,5.57-4.49,8.35-10.95,8.35-19.38v-19.03l-34.92-34.92v-68.45h-24.6v78.55Z"/><polygon points="672.66 1231.44 690.06 1248.84 701.08 1237.7 701.08 1159.15 676.49 1159.15 676.49 1227.61 672.66 1231.44"/><path d="M701.08,1164.47c0-7.11,1.16-12.22,3.48-15.31,1.39-1.78,3.6-3.09,6.61-3.95,2.32-.62,3.48-1.51,3.48-2.67,0-.85-2.32-2.98-6.96-6.38-6.58-4.87-11.25-8.56-14.04-11.08-2.78-2.51-6.07-6.13-9.86-10.85-2.86-3.63-4.56-5.45-5.11-5.45-1.47,0-2.2,2.9-2.2,8.7v100.71h24.6v-53.72Z"/></g></g></svg>